<svg xmlns="http://www.w3.org/2000/svg" viewBox="29 26 422 212" role="img" aria-labelledby="title desc">
  <title id="title">ARC ROM diamonds logo draft, white</title>
  <desc id="desc">Stylized vector draft of the ARC ROM diamonds wordmark with a segmented diamond cutting arc.</desc>
  <style>
    .ink { fill: currentColor; }
    .main {
      font-family: "Arial Narrow", "Helvetica Neue Condensed Bold", "Roboto Condensed", "Arial Black", Arial, sans-serif;
      font-size: 104px;
      font-weight: 900;
      font-stretch: condensed;
      font-style: italic;
      letter-spacing: -8px;
    }
    .main, .sub {
      stroke: currentColor;
      stroke-width: 3.2;
    }
    .sub {
      font-family: "Arial Narrow", "Helvetica Neue Condensed Bold", "Roboto Condensed", "Arial Black", Arial, sans-serif;
      font-size: 76px;
      font-weight: 900;
      font-stretch: condensed;
      font-style: italic;
      letter-spacing: -3px;
    }
  </style>
  <g style="color:#fff">
    <g class="ink">
      <path d="M 32.5 137.2 A 118 118 0 0 1 36.4 116.3 L 61.4 123.2 A 92 92 0 0 0 58.4 139.6 Z"/>
      <path d="M 37.8 111.3 A 118 118 0 0 1 46.3 91.8 L 69.1 104.2 A 92 92 0 0 0 62.6 119.4 Z"/>
      <path d="M 48.8 87.3 A 118 118 0 0 1 61.4 70.1 L 80.9 87.3 A 92 92 0 0 0 71.1 100.7 Z"/>
      <path d="M 64.9 66.3 A 118 118 0 0 1 80.9 52.3 L 96.2 73.4 A 92 92 0 0 0 83.6 84.3 Z"/>
      <path d="M 85.2 49.4 A 118 118 0 0 1 104 39.4 L 114.1 63.3 A 92 92 0 0 0 99.5 71.1 Z"/>
      <path d="M 108.7 37.4 A 118 118 0 0 1 129.3 31.8 L 133.9 57.4 A 92 92 0 0 0 117.8 61.8 Z"/>
      <path d="M 134.4 31 A 118 118 0 0 1 155.7 30.1 L 154.4 56.1 A 92 92 0 0 0 137.8 56.8 Z"/>
    </g>
    <text class="main ink" x="84" y="154">ARC ROM</text>
    <text class="sub ink" x="446" y="232" text-anchor="end">diamonds</text>
  </g>
</svg>
